<svg width="22" height="22" viewBox="0 0 22 22" fill="none" xmlns="http://www.w3.org/2000/svg">
<path d="M0.901863 0C0.662674 0 0.433282 0.0931281 0.26415 0.258897C0.0950176 0.424666 0 0.649496 0 0.883929C0 1.11836 0.0950176 1.34319 0.26415 1.50896C0.433282 1.67473 0.662674 1.76786 0.901863 1.76786H1.34558C1.54141 1.76819 1.73181 1.83099 1.88801 1.94676C2.04421 2.06254 2.15771 2.225 2.21137 2.40959L5.07208 12.2212C5.23388 12.7749 5.57521 13.2619 6.04447 13.6086C6.51373 13.9553 7.0854 14.1428 7.67305 14.1429H15.9143C16.4551 14.1429 16.9836 13.9842 17.4314 13.687C17.8793 13.3898 18.226 12.968 18.4269 12.4758L21.0856 5.95945C21.1949 5.69131 21.2355 5.40101 21.2039 5.11393C21.1723 4.82686 21.0694 4.55173 20.9043 4.31261C20.7391 4.0735 20.5168 3.87766 20.2566 3.74223C19.9964 3.6068 19.7063 3.5359 19.4117 3.53571H4.41552L3.94475 1.92343C3.78336 1.36969 3.44244 0.88249 2.97352 0.535478C2.50459 0.188466 1.93315 0.000502722 1.34558 0H0.901863ZM8.11677 21.2143C8.47207 21.2143 8.82389 21.1457 9.15215 21.0124C9.48041 20.8792 9.77867 20.6838 10.0299 20.4376C10.2811 20.1914 10.4804 19.899 10.6164 19.5773C10.7524 19.2556 10.8224 18.9107 10.8224 18.5625C10.8224 18.2143 10.7524 17.8694 10.6164 17.5477C10.4804 17.226 10.2811 16.9336 10.0299 16.6874C9.77867 16.4412 9.48041 16.2458 9.15215 16.1126C8.82389 15.9793 8.47207 15.9107 8.11677 15.9107C7.3992 15.9107 6.71102 16.1901 6.20363 16.6874C5.69623 17.1847 5.41118 17.8592 5.41118 18.5625C5.41118 19.2658 5.69623 19.9403 6.20363 20.4376C6.71102 20.9349 7.3992 21.2143 8.11677 21.2143ZM15.3317 21.2143C15.687 21.2143 16.0388 21.1457 16.3671 21.0124C16.6953 20.8792 16.9936 20.6838 17.2448 20.4376C17.496 20.1914 17.6953 19.899 17.8313 19.5773C17.9673 19.2556 18.0373 18.9107 18.0373 18.5625C18.0373 18.2143 17.9673 17.8694 17.8313 17.5477C17.6953 17.226 17.496 16.9336 17.2448 16.6874C16.9936 16.4412 16.6953 16.2458 16.3671 16.1126C16.0388 15.9793 15.687 15.9107 15.3317 15.9107C14.6141 15.9107 13.9259 16.1901 13.4185 16.6874C12.9111 17.1847 12.6261 17.8592 12.6261 18.5625C12.6261 19.2658 12.9111 19.9403 13.4185 20.4376C13.9259 20.9349 14.6141 21.2143 15.3317 21.2143Z" fill="white"/>
</svg>
