<svg width="21" height="21" viewBox="0 0 21 21" fill="none" xmlns="http://www.w3.org/2000/svg">
<path d="M8.35268 5.50222e-07C7.04538 0.000699295 5.75647 0.308081 4.58956 0.897441C3.42264 1.4868 2.41027 2.3417 1.6338 3.39343C0.857329 4.44515 0.338424 5.66437 0.118789 6.95309C-0.100845 8.24181 -0.0150826 9.56408 0.369184 10.8136C0.75345 12.0632 1.4255 13.2052 2.33132 14.1478C3.23715 15.0904 4.35147 15.8073 5.58474 16.241C6.81801 16.6747 8.13582 16.813 9.43226 16.6448C10.7287 16.4767 11.9676 16.0067 13.0494 15.2727L18.2141 20.4332C18.3576 20.5872 18.5306 20.7106 18.7228 20.7963C18.915 20.8819 19.1225 20.928 19.3329 20.9317C19.5433 20.9354 19.7523 20.8967 19.9474 20.8179C20.1425 20.7391 20.3197 20.6218 20.4685 20.473C20.6173 20.3242 20.7346 20.147 20.8134 19.9518C20.8922 19.7567 20.9309 19.5477 20.9272 19.3373C20.9235 19.1269 20.8775 18.9194 20.7918 18.7272C20.7062 18.535 20.5827 18.362 20.4287 18.2186L15.2682 13.0539C16.122 11.7973 16.6171 10.3318 16.7003 8.81498C16.7835 7.29813 16.4517 5.78727 15.7406 4.44488C15.0294 3.10248 13.9658 1.97931 12.6641 1.19615C11.3624 0.412988 9.87182 -0.000550613 8.35268 5.50222e-07ZM3.12946 8.35714C3.12946 6.97186 3.67976 5.64332 4.65931 4.66377C5.63885 3.68423 6.96739 3.13393 8.35268 3.13393C9.73796 3.13393 11.0665 3.68423 12.046 4.66377C13.0256 5.64332 13.5759 6.97186 13.5759 8.35714C13.5759 9.74243 13.0256 11.071 12.046 12.0505C11.0665 13.0301 9.73796 13.5804 8.35268 13.5804C6.96739 13.5804 5.63885 13.0301 4.65931 12.0505C3.67976 11.071 3.12946 9.74243 3.12946 8.35714Z" fill="white"/>
</svg>
